<svg width="16" height="12" viewBox="0 0 16 12" fill="none" xmlns="http://www.w3.org/2000/svg">
<g clip-path="url(#clip0_700_17575)">
<path d="M0 0H15.75V12H0V0Z" fill="#012169"/>
<path d="M1.8457 0L7.85039 4.525L13.8305 0H15.75V1.55L9.84375 6.025L15.75 10.475V12H13.7812L7.875 7.525L1.99336 12H0V10.5L5.88164 6.05L0 1.6V0H1.8457Z" fill="white"/>
<path d="M10.4344 7.025L15.75 11V12L9.08086 7.025H10.4344ZM5.90625 7.525L6.05391 8.4L1.32891 12H0L5.90625 7.525ZM15.75 0V0.075L9.62227 4.775L9.67148 3.675L14.5195 0H15.75ZM0 0L5.88164 4.4H4.40508L0 1.05V0Z" fill="#C8102E"/>
<path d="M5.93086 0V12H9.86836V0H5.93086ZM0 4V8H15.75V4H0Z" fill="white"/>
<path d="M0 4.825V7.225H15.75V4.825H0ZM6.71836 0V12H9.08086V0H6.71836Z" fill="#C8102E"/>
</g>
<defs>
<clipPath id="clip0_700_17575">
<rect width="15.75" height="12" fill="white"/>
</clipPath>
</defs>
</svg>
