<svg width="16" height="12" viewBox="0 0 16 12" fill="none" xmlns="http://www.w3.org/2000/svg">
<path fill-rule="evenodd" clip-rule="evenodd" d="M-0.984375 0H16.7344V12H-0.984375V0Z" fill="#199D00"/>
<path fill-rule="evenodd" clip-rule="evenodd" d="M3.47947 3.40065C3.46101 3.6819 3.43333 4.17409 3.67096 4.22565C3.95474 4.25378 3.79785 3.73815 3.90167 3.6444C3.92013 3.59753 3.95474 3.59753 3.95704 3.65612V4.0944C3.95704 4.23503 4.04933 4.27722 4.11854 4.30534C4.19237 4.30065 4.24313 4.30534 4.27081 4.37565L4.30773 5.13269C4.30773 5.13269 4.47846 5.18425 4.48768 4.70847C4.49461 4.42722 4.43231 4.19519 4.46923 4.14128C4.46923 4.08737 4.53844 4.08503 4.58458 4.11081C4.65841 4.16237 4.69071 4.228 4.80607 4.20456C4.98141 4.153 5.08754 4.06628 5.08985 3.93034C5.08638 3.79675 5.05902 3.66492 5.0091 3.54128C5.01832 3.51784 4.9768 3.45456 4.98602 3.43112C5.01602 3.48269 5.06447 3.478 5.0737 3.43112C5.0437 3.33269 4.99756 3.23659 4.92373 3.19675C4.86144 3.1405 4.76915 3.14987 4.73916 3.26706C4.7207 3.40065 4.7853 3.55769 4.8799 3.68894C4.90066 3.73815 4.92835 3.82253 4.91681 3.89753C4.86605 3.928 4.8153 3.91394 4.77146 3.8694C4.77146 3.8694 4.63303 3.76394 4.63303 3.73815C4.66995 3.49909 4.63996 3.47097 4.61919 3.403C4.60535 3.31159 4.56151 3.28112 4.52691 3.22019C4.4923 3.18269 4.44616 3.18269 4.42309 3.22019C4.36079 3.328 4.39079 3.56003 4.43462 3.6655C4.46692 3.76159 4.51537 3.82253 4.4923 3.82253C4.47384 3.87644 4.43462 3.86237 4.40463 3.79909C4.37086 3.66592 4.35457 3.52879 4.35618 3.39128C4.34464 3.28347 4.3308 3.05378 4.25928 2.99284C4.21775 2.93659 4.15546 2.96472 4.13239 3.01628C4.12629 3.12098 4.12861 3.22602 4.13931 3.33034C4.18545 3.50378 4.2016 3.65847 4.22467 3.83425C4.23159 4.07097 4.09086 3.93737 4.09778 3.81784C4.12805 3.66757 4.12568 3.5124 4.09086 3.36315C4.06779 3.30222 4.04241 3.28815 3.98473 3.29753C3.94089 3.29753 3.82785 3.42175 3.79555 3.63269C3.79555 3.63269 3.76786 3.7405 3.75632 3.83659C3.74017 3.9444 3.67096 4.02409 3.6202 3.82253C3.57868 3.67487 3.55099 3.31628 3.48178 3.40065H3.47947Z" fill="white"/>
<path fill-rule="evenodd" clip-rule="evenodd" d="M4.25244 4.55215L3.51416 4.91309C3.52108 4.74199 3.86254 4.43496 4.09786 4.43262C4.24783 4.43496 4.21091 4.49121 4.25013 4.55215H4.25244Z" fill="white"/>
<path fill-rule="evenodd" clip-rule="evenodd" d="M4.12136 4.78577C3.73376 5.8053 5.03268 5.94827 5.17803 4.82796C5.19187 4.78108 5.24724 4.73655 5.25647 4.81155C5.22648 5.82639 4.25056 5.89436 4.08445 5.57561C4.04537 5.46593 4.02584 5.35006 4.02677 5.23343C4.0037 5.03421 3.89988 5.11155 3.88373 5.30843C3.86758 5.41858 3.87219 5.44905 3.87219 5.55452C3.92295 6.35608 5.18033 6.01155 5.38567 5.35061C5.4941 4.98499 5.36721 4.71546 5.42489 4.71546C5.54947 4.85139 5.72482 4.73421 5.76404 4.68733C5.78019 4.66389 5.82172 4.64749 5.8494 4.67796C5.9463 4.74827 6.11703 4.71546 6.15394 4.59124C6.17471 4.46702 6.19086 4.34046 6.19547 4.21155C6.11472 4.23499 6.05704 4.25139 6.05012 4.28655L6.03397 4.39436C6.02705 4.42952 5.96014 4.42952 5.95553 4.38499C5.92554 4.24436 5.80095 4.22796 5.72482 4.44358C5.67637 4.48577 5.58408 4.49514 5.57485 4.43186C5.58639 4.28655 5.52871 4.2678 5.41335 4.33577L5.30261 3.48733C5.34875 3.48733 5.3949 3.52249 5.43873 3.46624C5.39259 3.31389 5.28877 3.00452 5.23109 2.98108C5.20571 2.94827 5.18264 2.96936 5.14573 2.97874C5.08574 2.99749 5.03037 3.04905 5.04883 3.15217C5.11804 3.5928 5.16418 3.92796 5.23571 4.37092C5.24724 4.42014 5.20571 4.48811 5.15034 4.48108C5.05806 4.4178 5.03498 4.28889 4.87349 4.29358C4.75813 4.29358 4.62893 4.42249 4.61278 4.54436C4.59202 4.6428 4.58509 4.74827 4.61278 4.83264C4.69353 4.93108 4.79043 4.92171 4.87579 4.90061C4.94501 4.87014 5.00269 4.79983 5.02806 4.81624C5.04421 4.83733 5.03037 5.07171 4.69814 5.24983C4.49742 5.34358 4.33592 5.36233 4.25056 5.19592C4.1975 5.09046 4.25518 4.69436 4.12136 4.78577Z" fill="white"/>
<path fill-rule="evenodd" clip-rule="evenodd" d="M5.77551 3.74943C5.85164 3.72131 6.22078 3.29006 6.22078 3.29006L6.16541 3.24318C6.14465 3.22678 6.14695 3.20803 6.16541 3.19162C6.2577 3.13537 6.2277 3.01818 6.18156 2.96193C6.15023 2.94642 6.11578 2.93855 6.08093 2.93896C6.04608 2.93937 6.01181 2.94804 5.98084 2.96428C5.91624 3.02756 5.9024 3.12834 5.95316 3.18928C6.0016 3.21271 6.05005 3.26428 6.01775 3.2924C5.86548 3.45646 5.45251 3.74006 5.50096 3.74943C5.51019 3.7635 5.76628 3.7635 5.7732 3.74943H5.77551ZM3.53759 5.27287C3.39916 5.49787 3.38763 5.83303 3.46376 5.93381C3.50529 5.98068 3.5722 6.00178 3.62065 5.98537C3.70832 5.94787 3.74754 5.7674 3.72678 5.70412C3.69678 5.65725 3.67371 5.65021 3.64372 5.68771C3.58373 5.81428 3.55836 5.72756 3.55143 5.65725C3.54482 5.53817 3.55101 5.41871 3.56989 5.301C3.58604 5.20256 3.56989 5.23068 3.53759 5.27287ZM9.46922 4.91428C9.33541 4.61896 9.14853 4.32834 9.09085 4.21818C8.91106 3.92944 8.72019 3.64798 8.51868 3.37443C8.37564 3.201 8.75401 3.44709 8.47254 3.10021L8.26721 2.92443C8.22106 2.89162 8.11032 2.83068 8.09186 2.92912C8.08264 3.01818 8.08725 3.06506 8.10109 3.13771C8.11263 3.18459 8.18184 3.26662 8.21645 3.3135C8.68944 3.94993 9.10487 4.62847 9.45768 5.34084C9.51767 5.31037 9.50383 4.9635 9.46922 4.91428Z" fill="white"/>
<path fill-rule="evenodd" clip-rule="evenodd" d="M8.88092 5.89387C8.85323 5.92434 8.94552 6.05325 9.06549 6.05325C9.2639 6.02981 9.43925 5.91731 9.60074 5.61731C9.66637 5.51751 9.70823 5.40357 9.72302 5.2845C9.74256 4.71553 9.69766 4.14617 9.58921 3.58762C9.58229 3.54075 9.58921 3.4845 9.59382 3.47044C9.60767 3.45403 9.6515 3.47044 9.67457 3.43059C9.70918 3.39544 9.58229 3.10247 9.51307 2.99231C9.49 2.94075 9.47847 2.90794 9.43694 2.997C9.38683 3.09527 9.36296 3.20518 9.36773 3.31575C9.46232 3.98372 9.49231 4.56731 9.5523 5.23528C9.55922 5.30091 9.54999 5.39466 9.50615 5.43216C9.33206 5.62906 9.119 5.7864 8.88092 5.89387ZM11.5687 5.89153C11.4257 5.97591 11.4257 6.072 11.541 6.07434C11.7395 6.05091 11.9748 6.0345 12.1363 5.78606C12.1933 5.66905 12.2263 5.54145 12.2332 5.41106C12.2622 4.85086 12.2258 4.28913 12.1247 3.73762C12.1201 3.69075 12.0994 3.58059 12.1063 3.56653C12.1201 3.53372 12.1847 3.56887 12.2078 3.53137C12.2401 3.49622 12.0394 3.23372 11.9679 3.12122C11.9448 3.06966 11.9356 3.03684 11.8917 3.12591C11.8453 3.22508 11.8307 3.33661 11.8502 3.44466C11.9563 4.17122 12.0348 4.71497 12.0509 5.35716C12.0417 5.41809 12.0394 5.45091 12.0117 5.52825C11.9494 5.60794 11.8802 5.71106 11.8156 5.76028C11.751 5.80716 11.6126 5.85403 11.5687 5.89153Z" fill="white"/>
<path fill-rule="evenodd" clip-rule="evenodd" d="M11.6746 5.24268C11.6746 5.07159 11.6769 4.92627 11.6723 4.79737C11.6708 4.68819 11.6473 4.5805 11.6031 4.48096C11.5616 4.38487 11.5869 4.30752 11.5662 4.2044C11.5477 4.10127 11.5523 3.94659 11.5247 3.82705C11.5154 3.78018 11.4924 3.62784 11.4993 3.61143C11.5108 3.57862 11.5546 3.61143 11.5777 3.57393C11.61 3.53877 11.4624 3.15205 11.3885 3.0419C11.3632 2.99268 11.3124 3.00909 11.2547 3.08877C11.197 3.14268 11.2178 3.26221 11.2409 3.37705C11.3816 4.13409 11.49 4.8208 11.467 5.54034C11.4577 5.60127 11.6746 5.35752 11.6746 5.24268ZM10.6203 4.30518C10.5303 4.30049 10.3434 4.12471 10.288 4.02393C10.279 3.9993 10.2751 3.97301 10.2767 3.94676C10.2783 3.92051 10.2853 3.8949 10.2973 3.87159C10.3319 3.84815 10.3826 3.82471 10.4218 3.84815C10.4218 3.84815 10.4611 3.9044 10.4541 3.91143C10.5003 3.93487 10.5234 3.92315 10.528 3.90205C10.5303 3.8669 10.5141 3.8458 10.5141 3.8083C10.5349 3.70049 10.6526 3.68409 10.6987 3.75205C10.731 3.79424 10.7448 3.88096 10.7472 3.93955C10.7472 3.97002 10.701 3.93487 10.671 3.93955C10.6456 3.94893 10.6387 3.98174 10.6364 4.00987C10.6318 4.08721 10.6226 4.21143 10.6203 4.30284V4.30518ZM8.96374 5.43018C8.98681 5.20049 8.95451 4.79034 8.95221 4.6544C8.93987 4.3048 8.91138 3.95597 8.86684 3.60909C8.83916 3.41221 8.94528 3.63018 8.93144 3.51534C8.89683 3.3208 8.79071 3.18721 8.66381 3.01143C8.62459 2.95284 8.62459 2.94112 8.5623 3.02549C8.49309 3.18252 8.55307 3.29268 8.57153 3.4169C8.66151 3.82002 8.71457 4.19034 8.73995 4.5583C8.76651 4.94055 8.7696 5.32411 8.74918 5.70674C8.81839 5.70909 8.92452 5.59659 8.96374 5.43018Z" fill="white"/>
<path fill-rule="evenodd" clip-rule="evenodd" d="M11.9818 5.06249C11.8226 4.79062 11.585 4.49999 11.5204 4.38984C11.3065 4.08634 11.0818 3.79083 10.8467 3.5039C10.6506 3.29296 10.939 3.46874 10.8098 3.30468C10.7014 3.18515 10.6714 3.1453 10.5768 3.07265C10.5307 3.04218 10.503 2.98359 10.4845 3.08437C10.4772 3.17166 10.4756 3.25936 10.4799 3.34687C10.4799 3.38671 10.5214 3.46405 10.5583 3.51093C11.0359 4.10859 11.5596 4.71796 11.9795 5.48437C12.0395 5.4539 12.0188 5.10937 11.9795 5.06249H11.9818Z" fill="white"/>
<path fill-rule="evenodd" clip-rule="evenodd" d="M4.79724 4.56395C4.78571 4.58505 4.76033 4.61083 4.76956 4.63661C4.78571 4.66005 4.80186 4.66708 4.82954 4.66708C4.85492 4.66708 4.89184 4.67411 4.89876 4.66005C4.9126 4.64364 4.92183 4.61317 4.9126 4.5827C4.88492 4.51239 4.81109 4.54052 4.79724 4.56395Z" fill="#1BA400"/>
<path fill-rule="evenodd" clip-rule="evenodd" d="M10.1403 8.49544C10.3525 8.50482 10.491 8.50716 10.6778 8.52826L10.8993 8.50482C11.1439 8.48138 11.1531 8.85873 11.1531 8.85873C11.1531 9.08138 11.0677 9.0931 10.9593 9.11654C10.897 9.12591 10.867 9.07904 10.8324 9.03216C10.7802 9.04915 10.7247 9.05238 10.6709 9.04154C10.5809 9.03685 10.4933 9.03685 10.4056 9.02982C10.3133 9.02279 10.2626 9.04154 10.168 9.03216C10.1495 9.06263 10.1218 9.10482 10.0665 9.0931C10.0203 9.08607 9.96263 8.95248 9.97878 8.84701C10.0134 8.77201 10.0019 8.79779 10.0019 8.76498C9.13437 8.74154 8.25997 8.70169 7.41095 8.71341C6.7465 8.71576 6.09127 8.74388 5.43374 8.77201C5.08306 8.76732 4.81543 8.71107 4.63086 8.43685C4.64932 8.43685 5.52603 8.48607 5.78212 8.46966C6.25508 8.46498 6.68882 8.42513 7.17101 8.41107C8.12154 8.42748 9.06516 8.42748 10.0157 8.49544C9.92341 8.43216 9.92341 8.28451 10.0618 8.24701C10.0734 8.23763 10.0803 8.31966 10.1011 8.31732C10.2141 8.31029 10.1634 8.46498 10.1403 8.49544ZM6.31968 3.17044C6.17664 3.58763 6.40273 4.04701 6.55962 4.00248C6.67497 4.04935 6.74419 3.82904 6.79033 3.58998C6.82494 3.52201 6.84801 3.51498 6.86416 3.55013C6.85954 3.86888 6.88723 3.94154 6.96798 4.03763C7.14794 4.17826 7.2979 4.05638 7.30943 4.04466L7.44786 3.90169C7.48016 3.86654 7.52169 3.86654 7.56553 3.89466C7.60936 3.93451 7.60244 4.00248 7.69473 4.04935C7.77317 4.08216 7.93697 4.05873 7.97619 3.99076C8.02695 3.89935 8.04079 3.86888 8.06387 3.83607C8.10078 3.78685 8.16307 3.80794 8.16307 3.82435C8.15615 3.85248 8.11924 3.87826 8.14462 3.92982C8.19076 3.96263 8.19999 3.94154 8.22537 3.93451C8.31765 3.88763 8.38686 3.68607 8.38686 3.68607C8.38917 3.61107 8.34764 3.61576 8.31996 3.63451L8.24844 3.68373C8.20229 3.69076 8.11693 3.72123 8.07309 3.65326C8.02926 3.57357 8.02926 3.45873 7.99696 3.37669C7.99696 3.37201 7.93697 3.24779 7.99235 3.24076C8.02003 3.24544 8.07771 3.26185 8.08694 3.21263C8.11462 3.16341 8.02695 3.02513 7.96466 2.95482C7.9116 2.89623 7.83777 2.88919 7.76625 2.95013C7.71549 2.99701 7.72241 3.04857 7.71318 3.09779C7.70443 3.13306 7.70405 3.16994 7.71207 3.20539C7.72009 3.24084 7.73629 3.27385 7.75933 3.30169C7.81008 3.40013 7.90006 3.52904 7.87007 3.71185C7.87007 3.71185 7.817 3.79623 7.72472 3.78451C7.6855 3.77748 7.6232 3.76107 7.5909 3.50794C7.56553 3.32044 7.59552 3.05326 7.51708 2.92904C7.48708 2.85169 7.46632 2.77904 7.39711 2.90794C7.37865 2.95951 7.2979 3.03685 7.35558 3.19388C7.41016 3.33539 7.4261 3.48924 7.40172 3.63919C7.36711 3.69076 7.36019 3.70716 7.31636 3.75638C7.25637 3.82669 7.18946 3.80794 7.13871 3.78216C7.09257 3.75169 7.05565 3.73529 7.03258 3.62982C7.03719 3.46576 7.04642 3.19623 7.01643 3.13998C6.97259 3.05091 6.90107 3.08373 6.87108 3.11185C6.73384 3.26674 6.64194 3.45751 6.60576 3.66263C6.56423 3.79857 6.5204 3.75873 6.4904 3.70482C6.41658 3.63451 6.40966 3.07904 6.31968 3.17044Z" fill="white"/>
<path fill-rule="evenodd" clip-rule="evenodd" d="M6.75432 4.08072C6.82122 4.03385 6.79123 4.00103 6.88813 4.09947C7.0132 4.32428 7.08582 4.57526 7.10039 4.83306C7.09577 4.894 7.1373 4.9315 7.15807 4.91744C7.16729 4.77681 7.50644 4.57994 7.8179 4.55181C7.86405 4.5401 7.84098 4.44869 7.8479 4.40181C7.82944 4.22603 7.9448 4.06666 8.1063 4.05494C8.32778 4.08775 8.40161 4.20728 8.40622 4.38775C8.38084 4.73931 8.02093 4.79791 7.82021 4.82603C7.79022 4.83775 7.77638 4.85181 7.82021 4.86822L8.66462 4.87291L8.70846 4.89635C8.71307 4.91978 8.69461 4.90103 8.66231 4.95728C8.61586 5.04018 8.5868 5.13195 8.57695 5.22681C8.32547 5.31119 8.06477 5.344 7.80175 5.37916C7.70947 5.42603 7.66333 5.48931 7.68178 5.55963C7.71408 5.63697 7.91711 5.71666 7.91711 5.719C7.95633 5.74244 8.00017 5.80103 7.90558 5.92056C7.49491 5.90181 7.17422 5.72369 7.06347 5.47291C7.03117 5.44713 6.99426 5.47291 6.97119 5.50572C6.80969 5.71666 6.6528 5.90416 6.37826 6.00728C6.21676 6.04947 6.04834 5.9815 5.96989 5.87369C5.91683 5.81041 5.91914 5.74244 5.90068 5.72838C5.8107 5.76822 5.04935 6.09635 5.14625 5.94166C5.33082 5.74244 5.65382 5.59244 5.93529 5.39556C5.95605 5.3276 5.99297 5.1026 6.10371 5.02994C6.11063 5.02994 6.08756 5.16119 6.08986 5.21744C6.08986 5.26431 6.08525 5.28072 6.09448 5.269C6.11524 5.25728 6.4567 4.98306 6.48669 4.89869C6.51899 4.85181 6.49361 4.72994 6.49361 4.72525C6.42901 4.5565 6.33903 4.54244 6.30673 4.45806C6.27674 4.34791 6.29058 4.22135 6.35288 4.18385C6.40825 4.13463 6.47285 4.13931 6.53514 4.19556C6.60435 4.25885 6.66434 4.38306 6.6828 4.47447C6.67126 4.50963 6.59051 4.45103 6.56744 4.46744C6.61185 4.51928 6.64138 4.58252 6.6528 4.65025C6.69895 4.84244 6.6851 4.91744 6.63896 5.04166C6.48669 5.36744 6.29289 5.46353 6.12216 5.58541C6.11755 5.58541 6.11524 5.66744 6.17754 5.71197C6.20061 5.73541 6.29059 5.74713 6.39441 5.71197C6.61621 5.58684 6.79556 5.39647 6.9089 5.16588C6.9285 4.99041 6.90959 4.81272 6.85352 4.64556C6.78662 4.48853 6.70818 4.26588 6.70818 4.26119C6.70587 4.16275 6.71279 4.12994 6.75432 4.08072ZM4.54409 3.17603C4.64099 3.22291 4.82556 3.20181 4.81633 3.04244L4.81172 2.96978C4.79326 2.92291 4.73789 2.93463 4.72635 2.9815C4.72174 2.99791 4.73327 3.02369 4.71943 3.03072C4.7102 3.04009 4.68021 3.03541 4.68021 2.99088C4.68021 2.97681 4.67098 2.96275 4.66406 2.95338C4.65944 2.94869 4.65483 2.94869 4.64329 2.94869C4.62945 2.94869 4.62945 2.95103 4.62253 2.96275C4.62022 2.97447 4.61561 2.98619 4.61561 3.00025C4.61561 3.01666 4.60638 3.02134 4.59715 3.02369C4.58331 3.02369 4.58562 3.02369 4.57408 3.019C4.56947 3.01197 4.56255 3.00963 4.56255 2.99556L4.55562 2.95806C4.55101 2.95103 4.54178 2.94634 4.53255 2.944C4.47949 2.944 4.47487 3.00728 4.47949 3.03072C4.47487 3.03541 4.47257 3.14556 4.54409 3.17603Z" fill="white"/>
<path fill-rule="evenodd" clip-rule="evenodd" d="M7.39291 4.3992C7.4898 4.44607 7.72282 4.42029 7.66515 4.26795L7.66053 4.19295C7.63977 4.14607 7.5867 4.15779 7.57517 4.20701C7.57055 4.22107 7.58209 4.24686 7.56594 4.25389C7.55902 4.26326 7.52672 4.25857 7.52903 4.21639C7.52903 4.20232 7.5198 4.18592 7.51288 4.17654C7.50595 4.1742 7.50365 4.17185 7.4898 4.17185C7.47827 4.17185 7.47827 4.17654 7.47135 4.18826C7.46673 4.19998 7.46443 4.2117 7.46443 4.22576C7.46212 4.23982 7.4552 4.24451 7.44366 4.2492C7.43213 4.2492 7.43443 4.2492 7.42521 4.24217C7.41828 4.23514 7.41136 4.23279 7.41136 4.22107L7.40444 4.18357C7.39983 4.17654 7.3906 4.17185 7.38137 4.16951C7.32831 4.16951 7.32369 4.23045 7.326 4.25389C7.32369 4.25857 7.32138 4.37107 7.39521 4.3992H7.39291ZM9.05404 3.89295C9.15094 3.93982 9.3332 3.91873 9.32628 3.7617L9.32166 3.6867C9.3009 3.63982 9.24784 3.65154 9.2363 3.69842C9.23169 3.71482 9.24322 3.7406 9.22707 3.74998C9.22015 3.75701 9.18785 3.75232 9.19016 3.70779C9.19016 3.69373 9.18093 3.67967 9.17401 3.67029C9.16709 3.66561 9.16478 3.6656 9.15094 3.6656C9.1394 3.6656 9.1394 3.67029 9.13248 3.68201L9.12556 3.71717C9.12325 3.73357 9.11633 3.74061 9.10479 3.74061C9.09326 3.74061 9.09557 3.7406 9.08634 3.73592C9.07942 3.72889 9.07249 3.72654 9.07249 3.71482C9.07249 3.7031 9.07019 3.68436 9.06557 3.67498C9.06096 3.66795 9.05173 3.66561 9.0425 3.66326C8.98944 3.66326 8.98482 3.7242 8.98713 3.74764C8.98482 3.75232 8.98252 3.86248 9.05634 3.89295H9.05404ZM9.9146 5.1656C9.74618 5.36014 9.82 5.68123 9.85922 5.75154C9.9146 5.86404 9.95843 5.9367 10.0669 5.99295C10.1661 6.0656 10.2445 6.02107 10.286 5.96951C10.3852 5.86404 10.3876 5.59451 10.4337 5.54295C10.466 5.44451 10.5491 5.46092 10.5883 5.50545C10.625 5.55836 10.6742 5.60107 10.7313 5.62967C10.8236 5.7117 10.9343 5.7281 11.0451 5.6531C11.1189 5.60857 11.1674 5.55467 11.2112 5.44451C11.2573 5.31326 11.2343 4.70389 11.2227 4.34295L11.1258 3.83904C11.1258 3.83436 11.1143 3.59998 11.1028 3.54607C11.1028 3.52264 11.0958 3.51561 11.1189 3.51795C11.1443 3.54139 11.1466 3.54139 11.1651 3.54842C11.1881 3.5531 11.2112 3.50857 11.1951 3.47107L10.9643 3.03514C10.9459 3.01639 10.9205 2.99764 10.8905 3.03982C10.8728 3.0561 10.8587 3.07601 10.8492 3.09823C10.8396 3.12045 10.8349 3.14448 10.8351 3.16873C10.8421 3.27185 10.8582 3.37732 10.8651 3.48045L10.9574 4.01014C10.9874 4.38514 10.9943 4.69451 11.0243 5.07185C11.0197 5.23123 10.9713 5.36951 10.9251 5.3906C10.9251 5.3906 10.8559 5.43045 10.8098 5.38592C10.7752 5.37186 10.639 5.15389 10.639 5.15389C10.5698 5.0906 10.5237 5.10701 10.4752 5.15389C10.3368 5.28982 10.2768 5.53826 10.1822 5.7117C10.1592 5.75154 10.0899 5.78201 10.0161 5.70936C9.82692 5.44451 9.93767 5.06951 9.9146 5.1656ZM9.09787 2.96951C9.18554 3.00467 9.24553 3.18514 9.22707 3.2742C9.20861 3.37967 9.16247 3.49686 9.13017 3.48279C9.09326 3.46873 9.15324 3.37498 9.11864 3.27654C9.10018 3.21092 8.98021 3.09373 8.99405 3.06092C8.97098 2.98826 9.04481 2.95545 9.09787 2.96717V2.96951Z" fill="white"/>
<path fill-rule="evenodd" clip-rule="evenodd" d="M10.1962 5.27313C10.2124 5.05751 10.1824 4.92626 10.1777 4.7997C10.1731 4.67313 10.037 3.70751 10.0093 3.61376C9.97472 3.43095 10.1408 3.59032 10.1224 3.48251C10.0647 3.35126 9.92396 3.15673 9.88012 3.04188C9.85244 2.99501 9.86397 2.94813 9.80399 3.03017C9.75234 3.17399 9.73417 3.32802 9.75092 3.48017C9.89397 4.2372 10.0393 4.86532 10.0162 5.58485C10.0855 5.58485 10.1616 5.42782 10.1962 5.27313ZM11.682 3.27392C11.7627 3.31376 11.8089 3.53876 11.7997 3.60204C11.7835 3.71923 11.742 3.84579 11.712 3.82938C11.6774 3.81532 11.7189 3.65595 11.7028 3.60673C11.6843 3.53642 11.5759 3.40985 11.5874 3.37235C11.5643 3.29267 11.6335 3.25985 11.682 3.27392ZM5.78266 4.86532C5.8588 4.89579 5.90494 5.05985 5.89802 5.10673C5.87956 5.19345 5.84034 5.2872 5.81035 5.27313C5.78036 5.26376 5.81727 5.14657 5.80343 5.10907C5.79651 5.02235 5.69038 4.97548 5.69269 4.93798C5.67423 4.86767 5.73883 4.85595 5.78497 4.86532H5.78266Z" fill="white"/>
<path fill-rule="evenodd" clip-rule="evenodd" d="M7.61929 5.11348C7.71619 5.11816 7.76464 5.19785 7.67466 5.23066C7.58237 5.26113 7.49701 5.28691 7.4947 5.41816C7.52931 5.60566 7.44856 5.54004 7.40242 5.5166C7.34704 5.47441 7.19016 5.37598 7.16709 5.16504C7.16478 5.11582 7.204 5.07129 7.2663 5.07129C7.35858 5.09707 7.49701 5.09941 7.61929 5.11348Z" fill="#1B9D00"/>
<path fill-rule="evenodd" clip-rule="evenodd" d="M3.75452 2.91535C3.86526 2.94816 3.87218 3.11691 3.86526 3.16613C3.84911 3.25519 3.80989 3.35129 3.7822 3.33957C3.7499 3.32785 3.7822 3.20597 3.76605 3.16847C3.7499 3.11691 3.65531 3.01847 3.66454 2.99035C3.64378 2.93176 3.71068 2.90363 3.75452 2.91535ZM5.96706 3.70285C5.87938 3.74972 5.84708 3.89035 5.90015 3.97472C5.95091 4.04504 6.02935 4.01926 6.03858 4.01926C6.12394 4.02863 6.1747 3.85754 6.1747 3.85754C6.1747 3.85754 6.177 3.81066 6.0778 3.90207C6.03396 3.9091 6.03166 3.89269 6.02012 3.86926C6.00956 3.82464 6.01361 3.77773 6.03166 3.73566C6.04781 3.69347 6.01551 3.67472 5.96706 3.70285ZM6.61305 2.84972C6.56691 2.88019 6.48155 2.9716 6.47924 3.07472C6.47693 3.13332 6.4654 3.13332 6.50231 3.16847C6.5323 3.21066 6.55768 3.20832 6.61305 3.17785C6.62685 3.16903 6.63869 3.15739 6.64782 3.14367C6.65696 3.12995 6.66319 3.11445 6.66612 3.09816C6.67996 3.03254 6.5969 3.13097 6.58767 3.05597C6.56922 2.98566 6.62228 2.95754 6.67304 2.89191C6.67304 2.84504 6.67304 2.81457 6.61074 2.84972H6.61305ZM7.12985 2.94347C7.10951 3.02882 7.09715 3.11592 7.09293 3.20363C7.07909 3.26926 7.16215 3.29738 7.19676 3.21301C7.25213 3.06066 7.25213 2.99504 7.25674 2.93176C7.24059 2.83097 7.17368 2.83332 7.12985 2.94347ZM10.406 4.63801C10.4152 4.62629 10.8674 4.30051 10.8674 4.30051C10.9135 4.2841 10.902 4.46926 10.8812 4.46691C10.741 4.60421 10.5797 4.71741 10.4037 4.80207C10.3806 4.81847 10.3598 4.67785 10.4037 4.63801H10.406ZM10.8143 4.63332C10.8951 4.67316 10.9274 4.90988 10.9182 4.97316C10.9182 5.09972 10.842 5.19816 10.8097 5.1841C10.7774 5.16769 10.8143 5.02707 10.7982 4.97785C10.7797 4.90754 10.7128 4.77863 10.7244 4.74113C10.7013 4.66144 10.7659 4.61926 10.8166 4.63332H10.8143ZM8.13806 5.65051C8.17549 5.60613 8.219 5.56745 8.26726 5.53566C8.31341 5.51222 8.35493 5.55441 8.35263 5.55207C8.35955 5.59894 8.32494 5.63879 8.33648 5.69972C8.34571 5.72316 8.35263 5.75129 8.39646 5.74191C8.46798 5.68332 8.53489 5.67863 8.6041 5.67629C8.66178 5.67863 8.66409 5.77472 8.62718 5.77472C8.49567 5.80285 8.43799 5.84035 8.3434 5.87551C8.29726 5.90363 8.26034 5.86847 8.26034 5.86613C8.26034 5.86379 8.23496 5.84035 8.25111 5.77941C8.25573 5.73254 8.23727 5.70441 8.19574 5.7091C8.16806 5.72785 8.14037 5.73722 8.12653 5.70207C8.11961 5.67863 8.1173 5.66457 8.13806 5.65051ZM11.2896 5.77707C11.3081 5.80051 11.3219 5.82394 11.2873 5.86613L11.2019 5.94113C11.1881 5.96457 11.1789 6.00676 11.225 6.01847C11.3081 6.04191 11.5019 5.91301 11.5019 5.91066C11.5342 5.88722 11.5249 5.84035 11.5203 5.84035C11.5019 5.81926 11.4603 5.83332 11.4326 5.82863C11.4188 5.82863 11.375 5.82394 11.3957 5.78176C11.4112 5.76105 11.4237 5.73815 11.4326 5.71379C11.4442 5.68566 11.4326 5.66691 11.3865 5.65051C11.3381 5.64113 11.3173 5.64582 11.2642 5.65051C11.2365 5.65519 11.2273 5.66926 11.2204 5.70441C11.2227 5.75832 11.255 5.75597 11.2896 5.77472V5.77707Z" fill="white"/>
<path fill-rule="evenodd" clip-rule="evenodd" d="M8.15408 4.44559C8.14254 4.46903 8.10101 4.46903 8.06179 4.44559C8.02257 4.42215 7.9995 4.38465 8.01334 4.36356C8.02718 4.34247 8.06641 4.34247 8.10563 4.36356C8.14485 4.38465 8.16561 4.4245 8.15408 4.44559ZM6.10073 3.18934C6.07766 3.19637 6.04536 3.17528 6.03152 3.14247C6.01767 3.10965 6.0246 3.08153 6.04767 3.0745C6.07074 3.06747 6.10073 3.0909 6.11688 3.12137C6.13303 3.15184 6.1238 3.18465 6.09842 3.19169L6.10073 3.18934Z" fill="#259F00"/>
<path fill-rule="evenodd" clip-rule="evenodd" d="M10.1631 8.78906C10.38 8.79844 10.583 8.78906 10.7976 8.80078C10.8368 8.83594 10.8091 8.91797 10.7838 8.91328L10.6038 8.90625C10.6015 8.83594 10.4262 8.84766 10.4308 8.90859C10.3362 8.92031 10.2508 8.90625 10.1539 8.90156C10.1262 8.8664 10.1309 8.80312 10.1631 8.78906Z" fill="#209000"/>
</svg>
