<svg width="18" height="18" viewBox="0 0 18 18"
     fill="none"
     xmlns="http://www.w3.org/2000/svg">
<path d="M8.9974 17.3346C4.3949 17.3346 0.664062 13.6038 0.664062 9.0013C0.664062 4.3988 4.3949 0.667969 8.9974 0.667969C13.5999 0.667969 17.3307 4.3988 17.3307 9.0013C17.3307 13.6038 13.5999 17.3346 8.9974 17.3346ZM8.9974 15.668C10.7655 15.668 12.4612 14.9656 13.7114 13.7153C14.9617 12.4651 15.6641 10.7694 15.6641 9.0013C15.6641 7.23319 14.9617 5.5375 13.7114 4.28726C12.4612 3.03701 10.7655 2.33464 8.9974 2.33464C7.22929 2.33464 5.53359 3.03701 4.28335 4.28726C3.03311 5.5375 2.33073 7.23319 2.33073 9.0013C2.33073 10.7694 3.03311 12.4651 4.28335 13.7153C5.53359 14.9656 7.22929 15.668 8.9974 15.668Z" fill="#D2D2D7"/>
</svg>
