<svg width="18" height="18" viewBox="0 0 18 18" fill="none" xmlns="http://www.w3.org/2000/svg">
<path d="M8.9974 17.3346C4.3949 17.3346 0.664062 13.6038 0.664062 9.0013C0.664062 4.3988 4.3949 0.667969 8.9974 0.667969C13.5999 0.667969 17.3307 4.3988 17.3307 9.0013C17.3307 13.6038 13.5999 17.3346 8.9974 17.3346ZM8.9974 15.668C10.7655 15.668 12.4612 14.9656 13.7114 13.7153C14.9617 12.4651 15.6641 10.7694 15.6641 9.0013C15.6641 7.23319 14.9617 5.5375 13.7114 4.28726C12.4612 3.03701 10.7655 2.33464 8.9974 2.33464C7.22929 2.33464 5.53359 3.03701 4.28335 4.28726C3.03311 5.5375 2.33073 7.23319 2.33073 9.0013C2.33073 10.7694 3.03311 12.4651 4.28335 13.7153C5.53359 14.9656 7.22929 15.668 8.9974 15.668ZM8.9974 13.168C7.89233 13.168 6.83252 12.729 6.05112 11.9476C5.26972 11.1662 4.83073 10.1064 4.83073 9.0013C4.83073 7.89623 5.26972 6.83643 6.05112 6.05502C6.83252 5.27362 7.89233 4.83464 8.9974 4.83464C10.1025 4.83464 11.1623 5.27362 11.9437 6.05502C12.7251 6.83643 13.1641 7.89623 13.1641 9.0013C13.1641 10.1064 12.7251 11.1662 11.9437 11.9476C11.1623 12.729 10.1025 13.168 8.9974 13.168Z" fill="#F29F24"/>
</svg>
