<svg width="15" height="15" viewBox="0 0 15 15" fill="none" xmlns="http://www.w3.org/2000/svg">
<path d="M7.5 1.93742L4.40625 5.03117C3.79444 5.64304 3.37781 6.4226 3.20903 7.27125C3.04026 8.11991 3.12693 8.99955 3.45807 9.79895C3.78922 10.5984 4.34997 11.2816 5.06943 11.7623C5.78888 12.243 6.63473 12.4996 7.5 12.4996C8.36528 12.4996 9.21112 12.243 9.93057 11.7623C10.65 11.2816 11.2108 10.5984 11.5419 9.79895C11.8731 8.99955 11.9597 8.11991 11.791 7.27125C11.6222 6.4226 11.2056 5.64304 10.5938 5.03117L7.5 1.93742ZM7.5 0.169922L11.4775 4.14742C12.2642 4.9341 12.7999 5.93637 13.0169 7.02752C13.234 8.11866 13.1226 9.24965 12.6968 10.2775C12.2711 11.3053 11.5501 12.1838 10.6251 12.8019C9.70005 13.42 8.61252 13.7499 7.5 13.7499C6.38749 13.7499 5.29995 13.42 4.37493 12.8019C3.4499 12.1838 2.72893 11.3053 2.30319 10.2775C1.87744 9.24965 1.76604 8.11866 1.98308 7.02752C2.20012 5.93637 2.73584 4.9341 3.5225 4.14742L7.5 0.169922Z" fill="black"/>
</svg>
