<svg width="15" height="15" viewBox="0 0 15 15" fill="none" xmlns="http://www.w3.org/2000/svg">
<path d="M13.125 1.25V13.75H11.875V9.375H9.375V5C9.375 4.00544 9.77009 3.05161 10.4733 2.34835C11.1766 1.64509 12.1304 1.25 13.125 1.25ZM11.875 2.83125C11.3562 3.125 10.625 3.85625 10.625 5V8.125H11.875V2.83125ZM5.625 8.6875V13.75H4.375V8.6875C3.66926 8.5432 3.035 8.15961 2.57947 7.60158C2.12394 7.04356 1.87509 6.34535 1.875 5.625V1.875H3.125V6.25H4.375V1.875H5.625V6.25H6.875V1.875H8.125V5.625C8.12491 6.34535 7.87606 7.04356 7.42053 7.60158C6.965 8.15961 6.33074 8.5432 5.625 8.6875Z" fill="black"/>
</svg>
