<svg width="15" height="15" viewBox="0 0 15 15" fill="none" xmlns="http://www.w3.org/2000/svg">
<path d="M2.5 1.875H12.5C12.6658 1.875 12.8247 1.94085 12.9419 2.05806C13.0592 2.17527 13.125 2.33424 13.125 2.5V12.5C13.125 12.6658 13.0592 12.8247 12.9419 12.9419C12.8247 13.0592 12.6658 13.125 12.5 13.125H2.5C2.33424 13.125 2.17527 13.0592 2.05806 12.9419C1.94085 12.8247 1.875 12.6658 1.875 12.5V2.5C1.875 2.33424 1.94085 2.17527 2.05806 2.05806C2.17527 1.94085 2.33424 1.875 2.5 1.875ZM3.125 3.125V11.875H11.875V3.125H3.125ZM5.625 4.375H7.8125C8.39266 4.375 8.94906 4.60547 9.3593 5.0157C9.76953 5.42594 10 5.98234 10 6.5625C10 7.14266 9.76953 7.69906 9.3593 8.1093C8.94906 8.51953 8.39266 8.75 7.8125 8.75H6.875V10.625H5.625V4.375ZM6.875 5.625V7.5H7.8125C8.06114 7.5 8.2996 7.40123 8.47541 7.22541C8.65123 7.0496 8.75 6.81114 8.75 6.5625C8.75 6.31386 8.65123 6.0754 8.47541 5.89959C8.2996 5.72377 8.06114 5.625 7.8125 5.625H6.875Z" fill="black"/>
</svg>
