<svg width="15" height="15" viewBox="0 0 15 15" fill="none" xmlns="http://www.w3.org/2000/svg">
<path d="M10.9384 1.25C11.5114 1.25004 12.0708 1.42513 12.5416 1.75182C13.0124 2.07851 13.3721 2.54121 13.5727 3.078C13.7733 3.61479 13.8051 4.20004 13.664 4.75542C13.5228 5.31079 13.2153 5.8098 12.7827 6.18563C13.0046 6.79 13.1259 7.44375 13.1259 8.125C13.1254 8.94681 12.9449 9.75853 12.597 10.5031C12.2491 11.2476 11.7423 11.9069 11.1122 12.4345C10.4822 12.9621 9.74413 13.3453 8.95006 13.557C8.156 13.7687 7.32518 13.8039 6.51607 13.66C5.70696 13.5161 4.9392 13.1967 4.2668 12.7242C3.59441 12.2517 3.03371 11.6376 2.62416 10.9251C2.2146 10.2126 1.96614 9.41907 1.89625 8.60024C1.82636 7.78141 1.93674 6.95721 2.21962 6.18563C1.91343 5.91954 1.66841 5.59036 1.5014 5.22069C1.33438 4.85101 1.24931 4.44957 1.25202 4.04392C1.25473 3.63828 1.34515 3.23801 1.5171 2.8706C1.68904 2.50319 1.93843 2.17731 2.24815 1.91534C2.55787 1.65337 2.9206 1.4615 3.31145 1.35289C3.7023 1.24428 4.11202 1.22151 4.51249 1.28613C4.91297 1.35075 5.29473 1.50124 5.63158 1.72727C5.96843 1.95331 6.25239 2.24953 6.464 2.59563C7.14974 2.46767 7.85325 2.46767 8.539 2.59563C8.78995 2.18439 9.14247 1.84461 9.56267 1.60896C9.98286 1.3733 10.4566 1.24969 10.9384 1.25ZM10.9384 2.5C10.424 2.5 9.954 2.75 9.66462 3.1575L9.60525 3.2475L9.1565 3.9825L8.30962 3.82438C7.84218 3.73716 7.3637 3.72619 6.89275 3.79188L6.69525 3.82438L5.84775 3.98375L5.39775 3.24875C5.28276 3.06041 5.12918 2.89856 4.94712 2.77385C4.76507 2.64915 4.55866 2.56443 4.34149 2.52526C4.12433 2.48609 3.90133 2.49336 3.68718 2.5466C3.47302 2.59984 3.27258 2.69783 3.09903 2.83414C2.92549 2.97044 2.78279 3.14195 2.68032 3.33739C2.57785 3.53283 2.51794 3.74775 2.50453 3.96801C2.49112 4.18828 2.52452 4.40888 2.60253 4.6153C2.68054 4.82172 2.80139 5.00928 2.95712 5.16563L3.039 5.2425L3.68962 5.8075L3.39275 6.61688C3.17296 7.21697 3.08731 7.85793 3.14182 8.49468C3.19633 9.13143 3.38968 9.74851 3.70827 10.3025C4.02686 10.8565 4.46295 11.334 4.98588 11.7014C5.50881 12.0688 6.10588 12.3171 6.73509 12.429C7.36431 12.5408 8.01039 12.5135 8.6279 12.3489C9.24541 12.1842 9.81935 11.8863 10.3094 11.4761C10.7994 11.0658 11.1936 10.5532 11.4642 9.97423C11.7348 9.39529 11.8754 8.76408 11.8759 8.125C11.8759 7.6775 11.809 7.24 11.6796 6.82313L11.6096 6.61688L11.3127 5.8075L11.9627 5.2425C12.2032 5.03376 12.3742 4.75653 12.4528 4.44792C12.5313 4.13932 12.5137 3.81408 12.4023 3.51577C12.2908 3.21746 12.0909 2.96031 11.8293 2.77877C11.5677 2.59723 11.2568 2.49997 10.9384 2.5ZM6.25087 8.125C6.25087 8.45652 6.38257 8.77446 6.61699 9.00888C6.85141 9.2433 7.16935 9.375 7.50087 9.375C7.83239 9.375 8.15033 9.2433 8.38475 9.00888C8.61917 8.77446 8.75087 8.45652 8.75087 8.125H10.0009C10.0009 8.78804 9.73748 9.42393 9.26864 9.89277C8.7998 10.3616 8.16391 10.625 7.50087 10.625C6.83783 10.625 6.20194 10.3616 5.7331 9.89277C5.26426 9.42393 5.00087 8.78804 5.00087 8.125H6.25087Z" fill="black"/>
</svg>
