<svg width="15" height="15" viewBox="0 0 15 15" fill="none" xmlns="http://www.w3.org/2000/svg">
<path d="M2.50003 10H12.5V3.125H2.50003V10ZM8.12503 11.25V12.5H10.625V13.75H4.37503V12.5H6.87503V11.25H1.87003C1.78795 11.2495 1.70679 11.2328 1.63117 11.2009C1.55556 11.169 1.48699 11.1225 1.4294 11.064C1.3718 11.0055 1.32631 10.9363 1.29553 10.8602C1.26475 10.7841 1.24928 10.7027 1.25003 10.6206V2.50438C1.25003 2.15688 1.5344 1.875 1.87003 1.875H13.13C13.4725 1.875 13.75 2.15562 13.75 2.50438V10.6206C13.75 10.9681 13.4657 11.25 13.13 11.25H8.12503Z" fill="black"/>
</svg>
