<svg width="40" height="40" viewBox="0 0 40 40" fill="none" xmlns="http://www.w3.org/2000/svg">
<path d="M37.0367 26.28L36.6617 24.405H32.4717L31.805 26.2667L28.4467 26.2733C30.0455 22.4286 31.6477 18.5852 33.2533 14.7433C33.5267 14.0917 34.0117 13.76 34.7267 13.7633C35.2733 13.7683 36.165 13.7683 37.4033 13.765L40 26.275L37.0367 26.28ZM33.415 21.8367H36.115L35.1067 17.1367L33.415 21.8367ZM11.7667 13.7617L15.1433 13.765L9.92333 26.2817L6.505 26.2783C5.64541 22.9722 4.79652 19.6633 3.95833 16.3517C3.79167 15.6917 3.46167 15.23 2.82667 15.0117C2.26167 14.8167 1.32 14.5167 0 14.1083V13.7667H5.395C6.32833 13.7667 6.87333 14.2183 7.04833 15.145C7.225 16.0733 7.66833 18.4367 8.38167 22.235L11.7667 13.7617ZM19.7833 13.765L17.1133 26.2783L13.9 26.275L16.5667 13.7617L19.7833 13.765ZM26.3 13.5333C27.2617 13.5333 28.4733 13.8333 29.17 14.1083L28.6067 16.7033C27.9767 16.45 26.94 16.1083 26.0683 16.12C24.8017 16.1417 24.0183 16.6733 24.0183 17.1833C24.0183 18.0133 25.3783 18.4317 26.7783 19.3383C28.3767 20.3717 28.5867 21.3 28.5667 22.3083C28.545 24.4017 26.7783 26.4667 23.0517 26.4667C21.3517 26.4417 20.7383 26.2983 19.3517 25.8067L19.9383 23.0983C21.35 23.69 21.9483 23.8783 23.155 23.8783C24.26 23.8783 25.2083 23.4317 25.2167 22.6533C25.2233 22.1 24.8833 21.825 23.6433 21.1417C22.4033 20.4567 20.6633 19.5083 20.6867 17.605C20.715 15.1683 23.0233 13.5333 26.3017 13.5333H26.3Z" fill="black"/>
</svg>
