<svg width="15" height="15" viewBox="0 0 15 15" fill="none" xmlns="http://www.w3.org/2000/svg">
<path d="M7.94188 11.1206C8.45875 11.6375 8.93438 11.875 9.375 11.875C9.61125 11.875 9.8 11.8331 10.1481 11.7025L10.3931 11.6075C11.0494 11.3438 11.3806 11.25 11.875 11.25C12.6338 11.25 13.3619 11.5906 14.0538 12.2375L14.1919 12.3706L13.3081 13.2544C12.7913 12.7375 12.3156 12.5 11.875 12.5C11.6388 12.5 11.45 12.5419 11.1019 12.6725L10.8569 12.7675C10.2006 13.0306 9.86938 13.125 9.375 13.125C8.61625 13.125 7.88813 12.7844 7.19625 12.1375L7.05813 12.0044L7.94188 11.1206ZM5.625 1.875C5.625 2.37228 5.82254 2.84919 6.17417 3.20083C6.52581 3.55246 7.00272 3.75 7.5 3.75C7.99728 3.75 8.4742 3.55246 8.82583 3.20083C9.17746 2.84919 9.375 2.37228 9.375 1.875H13.125C13.2908 1.875 13.4497 1.94085 13.5669 2.05806C13.6842 2.17527 13.75 2.33424 13.75 2.5V6.875C13.75 7.04076 13.6842 7.19973 13.5669 7.31694C13.4497 7.43415 13.2908 7.5 13.125 7.5H10.6238V6.25L12.5 6.24937V3.12438H10.3644L10.3538 3.15C10.1167 3.67991 9.73685 4.13336 9.25667 4.45955C8.77648 4.78575 8.21496 4.9718 7.635 4.99687L7.5 5C6.8965 5.00005 6.30589 4.82539 5.79949 4.49711C5.29309 4.16882 4.89255 3.70095 4.64625 3.15L4.635 3.125H2.5V6.25L4.37438 6.24937V11.875H6.25V13.125H3.75C3.58424 13.125 3.42527 13.0592 3.30806 12.9419C3.19085 12.8247 3.125 12.6658 3.125 12.5L3.12438 7.49937L1.875 7.5C1.70924 7.5 1.55027 7.43415 1.43306 7.31694C1.31585 7.19973 1.25 7.04076 1.25 6.875V2.5C1.25 2.33424 1.31585 2.17527 1.43306 2.05806C1.55027 1.94085 1.70924 1.875 1.875 1.875H5.625ZM7.94188 8.62063C8.45875 9.1375 8.93438 9.375 9.375 9.375C9.61125 9.375 9.8 9.33313 10.1481 9.2025L10.3931 9.1075C11.0494 8.84375 11.3806 8.75 11.875 8.75C12.6338 8.75 13.3619 9.09062 14.0538 9.7375L14.1919 9.87063L13.3081 10.7544C12.7913 10.2375 12.3156 10 11.875 10C11.6388 10 11.45 10.0419 11.1019 10.1725L10.8569 10.2675C10.2006 10.5306 9.86938 10.625 9.375 10.625C8.61625 10.625 7.88813 10.2844 7.19625 9.6375L7.05813 9.50437L7.94188 8.62063Z" fill="black"/>
</svg>
