<svg width="15" height="15" viewBox="0 0 15 15" fill="none" xmlns="http://www.w3.org/2000/svg">
<path d="M0.431641 4.37314C2.43107 2.75334 4.92717 1.87121 7.50039 1.87501C10.1785 1.87501 12.6379 2.81064 14.5691 4.37314L13.7841 5.34564C12.0068 3.90568 9.78785 3.12154 7.50039 3.12501C5.11977 3.12501 2.93414 3.95626 1.21664 5.34564L0.431641 4.37314ZM2.39477 6.80439C3.83889 5.63439 5.64179 4.99722 7.50039 5.00001C9.43414 5.00001 11.2104 5.67564 12.606 6.80376L11.8204 7.77626C10.5984 6.78647 9.07294 6.24752 7.50039 6.25001C5.86414 6.25001 4.36102 6.82189 3.18039 7.77626L2.39477 6.80376V6.80439ZM4.35852 9.23564C5.24717 8.51557 6.35663 8.12339 7.50039 8.12501C8.69039 8.12501 9.78351 8.54064 10.6423 9.23501L9.85664 10.2075C9.19014 9.66765 8.35811 9.37368 7.50039 9.37501C6.60789 9.37501 5.78789 9.68689 5.14414 10.2075L4.35852 9.23501V9.23564ZM6.32227 11.6669C6.65542 11.3967 7.07145 11.2495 7.50039 11.25C7.94664 11.25 8.35664 11.4063 8.67852 11.6663L7.50039 13.125L6.32227 11.6663V11.6669Z" fill="black"/>
</svg>
