<svg width="106" height="40" viewBox="0 0 106 40" fill="none" xmlns="http://www.w3.org/2000/svg">
<path d="M8.48438 25.125C9.31771 25.125 10.125 24.9427 10.9062 24.5781C11.6979 24.2135 12.3958 23.7135 13 23.0781C13.6146 22.4323 14.1094 21.6719 14.4844 20.7969C14.8594 19.9219 15.0469 18.9635 15.0469 17.9219C15.0469 16.8802 14.8594 15.9219 14.4844 15.0469C14.1094 14.1719 13.6146 13.4167 13 12.7812C12.3958 12.1354 11.6979 11.6302 10.9062 11.2656C10.125 10.901 9.31771 10.7188 8.48438 10.7188H5.4375V25.125H8.48438ZM2.40625 28V7.84375H8.48438C9.76562 7.84375 10.9844 8.10417 12.1406 8.625C13.3073 9.14583 14.3281 9.86458 15.2031 10.7812C16.0781 11.6979 16.776 12.7656 17.2969 13.9844C17.8177 15.2031 18.0781 16.5156 18.0781 17.9219C18.0781 19.3281 17.8177 20.6406 17.2969 21.8594C16.776 23.0781 16.0781 24.1458 15.2031 25.0625C14.3281 25.9792 13.3073 26.6979 12.1406 27.2188C10.9844 27.7396 9.76562 28 8.48438 28H2.40625ZM21.0944 28H17.8913L25.5788 7.84375H28.1256L35.8131 28H32.61L30.8444 23.3594H22.8444L21.0944 28ZM29.735 20.4844L26.8444 12.4844L23.9694 20.4844H29.735ZM57.0794 7.84375V28H54.0325V15.5156L48.2825 28H46.3606L40.595 15.5156V28H37.5638V7.84375H40.1106L47.3138 23.3594L54.5169 7.84375H57.0794ZM67.3144 25.125C68.1477 25.125 68.955 24.9427 69.7363 24.5781C70.5279 24.2135 71.2258 23.7135 71.83 23.0781C72.4446 22.4323 72.9394 21.6719 73.3144 20.7969C73.6894 19.9219 73.8769 18.9635 73.8769 17.9219C73.8769 16.8802 73.6894 15.9219 73.3144 15.0469C72.9394 14.1719 72.4446 13.4167 71.83 12.7812C71.2258 12.1354 70.5279 11.6302 69.7363 11.2656C68.955 10.901 68.1477 10.7188 67.3144 10.7188H64.2675V25.125H67.3144ZM61.2363 28V7.84375H67.3144C68.5956 7.84375 69.8144 8.10417 70.9706 8.625C72.1373 9.14583 73.1581 9.86458 74.0331 10.7812C74.9081 11.6979 75.606 12.7656 76.1269 13.9844C76.6477 15.2031 76.9081 16.5156 76.9081 17.9219C76.9081 19.3281 76.6477 20.6406 76.1269 21.8594C75.606 23.0781 74.9081 24.1458 74.0331 25.0625C73.1581 25.9792 72.1373 26.6979 70.9706 27.2188C69.8144 27.7396 68.5956 28 67.3144 28H61.2363ZM79.9244 28H76.7213L84.4088 7.84375H86.9556L94.6431 28H91.44L89.6744 23.3594H81.6744L79.9244 28ZM88.565 20.4844L85.6744 12.4844L82.7994 20.4844H88.565Z" fill="black"/>
<circle cx="101.5" cy="4.5" r="4.5" fill="#F19204"/>
</svg>
